<?xml version="1.0" standalone="no"?>
<!DOCTYPE svg PUBLIC "-//W3C//DTD SVG 20010904//EN"
 "http://www.w3.org/TR/2001/REC-SVG-20010904/DTD/svg10.dtd">
<svg version="1.0" xmlns="http://www.w3.org/2000/svg"
 width="1074.000000pt" height="211.000000pt" viewBox="0 0 1074.000000 211.000000"
 preserveAspectRatio="xMidYMid meet">

<g transform="translate(0.000000,211.000000) scale(0.100000,-0.100000)"
fill="#000000" stroke="none">
<path d="M3585 1030 c0 -289 1 -407 2 -262 2 144 2 380 0 525 -1 144 -2 26 -2
-263z"/>
<path d="M4024 1503 c-78 -186 -96 -235 -90 -248 9 -25 25 -17 43 20 16 34 18
35 79 35 60 0 63 -1 83 -35 22 -37 38 -44 47 -20 6 14 -86 245 -108 273 -18
22 -37 13 -54 -25z m58 -103 l17 -40 -40 0 c-21 0 -39 2 -39 4 0 12 32 76 38
76 4 0 15 -18 24 -40z"/>
<path d="M4664 1527 c-2 -7 -3 -74 -2 -148 3 -126 4 -134 23 -134 18 0 20 8
23 62 l3 62 57 3 c44 2 58 7 60 20 3 14 -6 17 -55 20 l-58 3 -3 38 -3 37 58 0
c65 0 89 10 80 34 -5 13 -23 16 -92 16 -61 0 -87 -4 -91 -13z"/>
<path d="M5380 1533 c-28 -10 -70 -56 -81 -90 -14 -44 -4 -114 22 -147 86
-109 259 -47 259 93 0 52 -31 111 -70 134 -27 16 -98 22 -130 10z m103 -53
c52 -41 56 -121 10 -172 -21 -24 -84 -24 -113 0 -31 25 -40 111 -16 147 30 46
79 56 119 25z"/>
<path d="M6007 1533 c-4 -3 -7 -69 -7 -145 0 -118 2 -140 16 -145 26 -10 34
16 34 111 l0 89 81 -102 c53 -66 87 -101 98 -99 14 3 16 24 19 146 2 124 0
143 -14 149 -26 10 -34 -16 -34 -111 l0 -88 -80 101 c-74 94 -96 112 -113 94z"/>
<path d="M6755 1528 c-32 -17 -45 -39 -45 -75 0 -38 27 -70 67 -79 79 -17 102
-35 90 -68 -8 -21 -84 -22 -115 0 -18 12 -26 13 -37 4 -53 -44 92 -93 164 -55
33 16 41 33 41 80 0 40 -32 69 -87 80 -53 10 -73 22 -73 46 0 34 42 45 96 24
48 -18 70 -12 59 17 -13 34 -115 51 -160 26z"/>
<path d="M7426 1521 c-82 -56 -88 -179 -12 -250 33 -31 110 -40 154 -17 91 47
108 178 32 251 -40 39 -129 47 -174 16z m142 -57 c32 -37 31 -111 -3 -148 -21
-23 -32 -27 -67 -24 -55 4 -83 41 -82 105 1 39 6 51 34 76 26 23 38 28 64 23
17 -3 41 -17 54 -32z"/>
<path d="M1973 1494 c-26 -22 -383 -876 -383 -915 0 -48 60 -80 107 -55 21 11
38 38 71 115 l44 101 210 -2 209 -3 40 -90 c47 -106 66 -128 110 -128 37 0 79
41 79 76 -1 24 -345 849 -370 886 -21 31 -87 40 -117 15z m116 -431 c34 -78
61 -146 61 -152 0 -7 -44 -11 -130 -11 -97 0 -130 3 -130 13 -1 23 124 307
131 299 5 -4 35 -71 68 -149z"/>
<path d="M2643 1499 c-64 -19 -63 -8 -63 -489 0 -424 1 -437 20 -458 11 -12
31 -24 44 -28 13 -3 125 -4 248 -2 253 5 286 12 362 79 59 52 81 110 80 214 0
62 -5 89 -21 121 -20 38 -77 96 -118 120 -18 10 -17 13 18 44 55 48 71 84 70
162 0 52 -6 79 -27 122 -35 72 -84 102 -187 116 -93 12 -383 11 -426 -1z m402
-171 c33 -15 55 -56 55 -103 0 -87 -36 -105 -210 -105 l-130 0 0 110 0 110
130 0 c79 0 139 -5 155 -12z m46 -392 c45 -19 61 -47 61 -110 1 -120 -44 -146
-252 -146 l-140 0 0 135 0 135 149 0 c106 0 158 -4 182 -14z"/>
<path d="M3954 837 c-2 -7 -3 -74 -2 -148 l3 -134 60 -3 c78 -4 121 4 146 29
26 26 25 86 -2 115 -20 21 -20 24 -4 47 20 30 12 71 -18 92 -28 20 -175 21
-183 2z m153 -53 c11 -28 -11 -49 -56 -52 -41 -3 -41 -3 -41 32 0 36 0 36 45
36 33 0 47 -5 52 -16z m13 -119 c10 -12 10 -21 2 -40 -10 -22 -18 -25 -62 -25
l-50 0 0 40 0 40 49 0 c31 0 53 -5 61 -15z"/>
<path d="M4717 818 c-8 -18 -33 -77 -56 -131 -23 -54 -41 -106 -39 -115 6 -29
28 -24 45 12 17 36 17 36 80 36 64 0 64 0 79 -35 15 -36 40 -46 50 -21 5 13
-88 246 -109 274 -16 21 -36 13 -50 -20z m63 -135 c0 -8 -13 -13 -35 -13 -19
0 -35 2 -35 5 0 2 7 23 17 46 l16 42 18 -34 c10 -19 18 -40 19 -46z"/>
<path d="M5344 837 c-2 -7 -3 -74 -2 -148 3 -126 4 -134 23 -134 17 0 20 8 23
53 l3 52 53 0 c60 0 91 23 102 77 7 35 -16 87 -45 103 -29 15 -150 13 -157 -3z
m148 -62 c9 -19 8 -29 -6 -50 -13 -20 -25 -25 -56 -25 l-40 0 0 50 0 50 45 0
c39 0 47 -4 57 -25z"/>
<path d="M6007 836 c-8 -21 14 -36 55 -36 l37 0 3 -122 c3 -115 4 -123 23
-123 19 0 20 8 23 123 l3 122 37 0 c41 0 63 15 55 36 -8 20 -228 20 -236 0z"/>
<path d="M6795 838 c-3 -8 -4 -75 -3 -149 3 -126 4 -134 23 -134 19 0 20 7 20
145 0 130 -2 145 -18 148 -9 2 -19 -3 -22 -10z"/>
<path d="M7425 825 c-26 -25 -33 -72 -15 -104 9 -19 42 -34 95 -46 38 -8 55
-23 55 -45 0 -33 -78 -42 -118 -14 -18 12 -26 13 -37 4 -22 -18 -18 -28 18
-50 80 -49 187 -9 187 70 0 46 -29 74 -87 85 -53 10 -73 22 -73 46 0 34 42 45
96 24 48 -18 70 -12 59 17 -9 23 -50 38 -106 38 -40 0 -55 -5 -74 -25z"/>
<path d="M8073 834 c-8 -21 13 -34 55 -34 l32 0 0 -114 c0 -118 8 -144 44
-130 13 5 16 24 16 124 l0 119 43 3 c34 2 42 7 42 23 0 19 -8 20 -113 23 -96
2 -113 0 -119 -14z"/>
<path d="M8857 828 c-31 -48 -109 -249 -103 -264 9 -23 29 -12 45 24 14 31 16
32 80 32 64 0 66 -1 81 -33 16 -34 43 -43 48 -15 5 25 -104 272 -122 276 -8 2
-21 -7 -29 -20z m46 -115 c14 -36 14 -38 -4 -41 -10 -2 -28 -2 -38 0 -18 3
-18 5 -4 41 8 20 19 37 23 37 4 0 15 -17 23 -37z"/>
</g>
</svg>
